<svg xmlns="http://www.w3.org/2000/svg" width="18" height="18"><path d="M9 .531a8.72 8.72 0 0 1 8.719 8.719A8.718 8.718 0 0 1 9 17.969 8.718 8.718 0 0 1 .281 9.25 8.72 8.72 0 0 1 9 .531zm0 15.75a7.027 7.027 0 0 0 7.031-7.031A7.029 7.029 0 0 0 9 2.219 7.029 7.029 0 0 0 1.969 9.25 7.027 7.027 0 0 0 9 16.281zM9 4.398a1.477 1.477 0 1 1 0 2.954 1.477 1.477 0 0 1 0-2.954zm1.969 8.93a.422.422 0 0 1-.422.422H7.453a.422.422 0 0 1-.422-.422v-.844c0-.233.19-.421.422-.421h.422v-2.25h-.422a.422.422 0 0 1-.422-.422v-.844c0-.233.19-.422.422-.422h2.25c.233 0 .422.189.422.422v3.516h.422c.233 0 .422.188.422.421v.844z" fill="#9CA3AF" fill-rule="evenodd"/></svg>