<?xml version="1.0" encoding="UTF-8"?>
<svg width="26px" height="26px" viewBox="0 0 26 26" version="1.1" xmlns="http://www.w3.org/2000/svg" xmlns:xlink="http://www.w3.org/1999/xlink">
    <title>icon-instagram</title>
    <defs>
        <path d="M6,0 L20,0 C23.3137085,0 26,2.6862915 26,6 L26,20 C26,23.3137085 23.3137085,26 20,26 L6,26 C2.6862915,26 0,23.3137085 0,20 L0,6 C0,2.6862915 2.6862915,0 6,0 Z" id="path-1"></path>
        <linearGradient x1="66.8139539%" y1="-10.5072748%" x2="98.3430837%" y2="111.45127%" id="linearGradient-3">
            <stop stop-color="#4E60D3" offset="0%"></stop>
            <stop stop-color="#913BAF" offset="14.2763214%"></stop>
            <stop stop-color="#D52D88" offset="76.145798%"></stop>
            <stop stop-color="#F26D4F" offset="100%"></stop>
        </linearGradient>
        <radialGradient cx="30.2743283%" cy="100%" fx="30.2743283%" fy="100%" r="125.287816%" gradientTransform="translate(0.302743,1.000000),scale(0.687500,1.000000),rotate(23.377545),scale(1.000000,0.719668),translate(-0.302743,-1.000000)" id="radialGradient-4">
            <stop stop-color="#FED276" offset="0%"></stop>
            <stop stop-color="#FDBD61" stop-opacity="0.975005661" offset="17.0240041%"></stop>
            <stop stop-color="#F6804D" offset="45.4081253%"></stop>
            <stop stop-color="#E83D5C" stop-opacity="0" offset="100%"></stop>
        </radialGradient>
    </defs>
    <g id="icon-instagram" stroke="none" stroke-width="1" fill="none" fill-rule="evenodd">
        <g>
            <mask id="mask-2" fill="white">
                <use xlink:href="#path-1"></use>
            </mask>
            <use id="Mask" fill="#517EA3" fill-rule="nonzero" xlink:href="#path-1"></use>
            <g id="Instagram" mask="url(#mask-2)">
                <g transform="translate(-0.000000, 0.000000)">
                    <g id="bg">
                        <polygon id="Background" fill="url(#linearGradient-3)" points="26 0 26 26 0 26 1.84741111e-14 6.85562718e-15"></polygon>
                        <path d="M26,26 L5.68434189e-14,26 L5.68434189e-14,9.06705147 C2.06702852,8.45749761 4.29835032,8.125 6.62553148,8.125 C16.379841,8.125 24.6531781,13.9664574 26,21.5668677 C26,21.5668677 26,26 26,26 Z" id="Yellow-Flare" fill="url(#radialGradient-4)"></path>
                    </g>
                    <g id="Icon" transform="translate(3.402344, 3.503906)">
                        <path d="M1.80273438,5.53534638 L1.80273438,13.6091849 C1.80273438,15.6704022 3.47401844,17.3417969 5.53531548,17.3417969 L13.7107783,17.3417969 C15.7724646,17.3417969 17.4433594,15.670795 17.4433594,13.6091849 L17.4433594,5.53534638 C17.4433594,3.47412902 15.7720753,1.80273438 13.7107783,1.80273438 L5.53531548,1.80273438 C3.47362919,1.80273438 1.80273438,3.47373629 1.80273438,5.53534638 Z M0.025390625,5.53534638 C0.025390625,2.49216194 2.49200384,0.025390625 5.53531548,0.025390625 L13.7107783,0.025390625 C16.7537015,0.025390625 19.2207031,2.49255549 19.2207031,5.53534638 L19.2207031,13.6091849 C19.2207031,16.6523693 16.7540899,19.1191406 13.7107783,19.1191406 L5.53531548,19.1191406 C2.49239227,19.1191406 0.025390625,16.6519758 0.025390625,13.6091849 L0.025390625,5.53534638 Z" id="Camera-Frame" fill="#FFFFFF" fill-rule="nonzero"></path>
                        <path d="M9.6484375,14.7011719 C6.85788936,14.7011719 4.59570312,12.4389856 4.59570312,9.6484375 C4.59570312,6.85788936 6.85788936,4.59570312 9.6484375,4.59570312 C12.4389856,4.59570312 14.7011719,6.85788936 14.7011719,9.6484375 C14.7011719,12.4389856 12.4389856,14.7011719 9.6484375,14.7011719 Z M9.6484375,12.9238281 C11.4573858,12.9238281 12.9238281,11.4573858 12.9238281,9.6484375 C12.9238281,7.83948921 11.4573858,6.37304688 9.6484375,6.37304688 C7.83948921,6.37304688 6.37304688,7.83948921 6.37304688,9.6484375 C6.37304688,11.4573858 7.83948921,12.9238281 9.6484375,12.9238281 Z" id="Oval-1" fill="#FFFFFF" fill-rule="nonzero"></path>
                        <circle id="Oval-2" fill="#FFFFFF" cx="14.7773438" cy="4.46875" r="1.21875"></circle>
                    </g>
                </g>
            </g>
        </g>
    </g>
</svg>