<svg width="163" height="42" xmlns="http://www.w3.org/2000/svg" xmlns:xlink="http://www.w3.org/1999/xlink"><defs><path id="a" d="M0 22.58V.201h15.173V22.58z"/><path id="c" d="M19.3 30.464H.227V.201H19.3v30.263z"/><linearGradient x1="60.932%" y1="28.45%" x2="-19.705%" y2="99.212%" id="e"><stop stop-color="#764BA2" offset="0%"/><stop stop-color="#667EEA" offset="100%"/></linearGradient></defs><g fill="none" fill-rule="evenodd"><g transform="translate(62.635 10.46)"><mask id="b" fill="#fff"><use xlink:href="#a"/></mask><path d="M9.663 16.138c0-.565-.24-1.017-.72-1.356-.48-.34-1.074-.65-1.78-.933a57.835 57.835 0 0 0-2.331-.869A8.738 8.738 0 0 1 2.5 11.751 6.723 6.723 0 0 1 .72 9.76C.24 8.954 0 7.915 0 6.644c0-2.09.621-3.688 1.865-4.79C3.108.752 4.902.201 7.248.201c1.61 0 3.065.17 4.365.51.457.118.88.243 1.267.373 1.025.343 1.572 1.46 1.254 2.493l-.088.283A2.013 2.013 0 0 1 11.55 5.2a36.183 36.183 0 0 0-.573-.168 10.922 10.922 0 0 0-3.009-.424c-1.639 0-2.458.636-2.458 1.908 0 .508.24.918.72 1.229.48.311 1.074.6 1.78.869s1.484.558 2.332.869c.847.31 1.624.713 2.33 1.208a6.336 6.336 0 0 1 1.78 1.928c.481.791.721 1.809.721 3.052 0 2.147-.685 3.835-2.055 5.065-1.371 1.229-3.427 1.843-6.167 1.843-1.498 0-2.903-.19-4.217-.572-.51-.148-.982-.305-1.417-.472A2.006 2.006 0 0 1 .17 18.96l.124-.332c.41-1.105 1.567-1.625 2.615-1.241.234.086.48.17.737.256 1.073.353 2.175.53 3.306.53.82 0 1.476-.156 1.97-.467.495-.31.742-.833.742-1.568" fill="#764BA2" mask="url(#b)"/></g><path d="M96.004 29.78c.255.841-.123 1.764-.917 2.14-.534.252-1.115.463-1.745.634a14.157 14.157 0 0 1-3.708.487c-1.696 0-3.13-.269-4.302-.805-1.173-.537-2.127-1.293-2.861-2.268-.735-.975-1.265-2.154-1.59-3.539-.325-1.384-.487-2.91-.487-4.577 0-3.588.805-6.35 2.415-8.287 1.611-1.935 3.956-2.903 7.036-2.903 1.554 0 2.804.127 3.751.382.273.073.538.152.795.237 1.017.335 1.564 1.438 1.264 2.465l-.172.591c-.343 1.173-1.464 1.75-2.545 1.459a.22.22 0 0 1-.02-.005c-.635-.17-1.363-.255-2.182-.255-1.526 0-2.685.502-3.476 1.505-.791 1.003-1.187 2.607-1.187 4.81 0 .905.099 1.738.297 2.501.197.763.494 1.427.89 1.992.395.566.911 1.01 1.547 1.335.636.326 1.378.488 2.225.488.933 0 1.723-.12 2.373-.36a1.807 1.807 0 0 1 2.356 1.17l.243.802ZM103.705 21.852c0 .932.085 1.794.254 2.585.17.791.424 1.484.763 2.077.34.593.784 1.053 1.335 1.377.551.326 1.208.488 1.971.488 1.441 0 2.515-.523 3.221-1.568s1.06-2.698 1.06-4.96c0-1.949-.326-3.524-.975-4.725-.65-1.2-1.752-1.801-3.306-1.801-1.356 0-2.416.508-3.179 1.525-.763 1.018-1.144 2.685-1.144 5.002m-5.68 0c0-3.588.876-6.35 2.628-8.286 1.752-1.936 4.21-2.904 7.375-2.904 1.695 0 3.164.27 4.408.806 1.243.537 2.274 1.292 3.094 2.267.819.975 1.434 2.155 1.844 3.54.409 1.384.614 2.91.614 4.577 0 3.588-.869 6.35-2.607 8.286-1.737 1.936-4.189 2.903-7.353 2.903-1.695 0-3.165-.269-4.408-.805-1.244-.537-2.282-1.293-3.115-2.268-.834-.975-1.456-2.154-1.865-3.539-.41-1.384-.615-2.91-.615-4.577" fill="#764BA2"/><g transform="translate(121.575 10.46)"><mask id="d" fill="#fff"><use xlink:href="#c"/></mask><path d="M9.679 4.864c-1.075 0-1.916.269-2.522.805-.608.537-1.081 1.342-1.42 2.416V16.9c.396.311.826.558 1.293.742.466.184 1.08.275 1.843.275 1.582 0 2.77-.558 3.56-1.674.791-1.116 1.187-2.96 1.187-5.531 0-1.865-.312-3.306-.932-4.323-.623-1.018-1.625-1.526-3.01-1.526M2.24.794h.442c.923 0 1.728.63 1.953 1.525l.255 1.019h.169C5.794 2.264 6.662 1.473 7.665.964 8.668.456 9.891.201 11.332.201c2.655 0 4.647.842 5.976 2.522C18.636 4.405 19.3 7.11 19.3 10.84c0 1.808-.212 3.44-.636 4.895-.424 1.456-1.052 2.692-1.886 3.709a8.241 8.241 0 0 1-3.052 2.331c-1.201.536-2.579.805-4.132.805-.876 0-1.597-.063-2.162-.19a7.453 7.453 0 0 1-1.695-.615v6.675a2.013 2.013 0 0 1-2.013 2.014H2.24A2.013 2.013 0 0 1 .227 28.45V2.808c0-1.112.901-2.013 2.013-2.013" fill="#764BA2" mask="url(#d)"/></g><path d="M153.509 15.031c-1.433.15-2.45.691-3.048 1.62-.598.93-.893 2.119-.882 3.566l7.84-.823c-.047-1.53-.402-2.67-1.063-3.426-.662-.754-1.61-1.066-2.847-.937Zm7.295 13.935c.505.998.112 2.239-.9 2.712-.515.241-1.087.463-1.715.663-1.456.467-3.003.7-4.641.7-3.42 0-5.92-.996-7.502-2.988-1.583-1.992-2.374-4.726-2.374-8.201 0-3.73.89-6.527 2.67-8.392 1.78-1.865 4.281-2.797 7.502-2.797 1.074 0 2.12.141 3.137.423a7.3 7.3 0 0 1 2.712 1.399c.791.65 1.427 1.526 1.907 2.628.481 1.101.721 2.473.721 4.111 0 .593-.035 1.23-.106 1.907-.02.187-.041.376-.066.567a1.771 1.771 0 0 1-1.75 1.552l-11.14.885c.146 1.065.467 2.238 1.3 3.142.833.905 2.183 1.356 4.049 1.356 1.158 0 2.196-.176 3.115-.53.167-.064.327-.129.48-.193.963-.41 2.078.022 2.55.956l.051.1Z" fill="#764BA2"/><g fill="url(#e)"><path d="M37.102 39.474A5.06 5.06 0 0 1 32.72 42H14.279a5.06 5.06 0 0 1-4.38-2.526L.677 23.526a5.046 5.046 0 0 1 0-5.052l9.22-15.948A5.06 5.06 0 0 1 14.28 0h18.442a5.06 5.06 0 0 1 4.38 2.526l9.221 15.948a5.046 5.046 0 0 1 0 5.052l-9.22 15.948Z"/></g></g></svg>