<?xml version="1.0" encoding="UTF-8"?>
<svg fill="currentColor" width="22px" height="22px" viewBox="0 0 22 22" version="1.1" xmlns="http://www.w3.org/2000/svg" xmlns:xlink="http://www.w3.org/1999/xlink"
 ><g fill="currentColor"><g id="icon-tag" fill="#D1D5DB" fill-rule="nonzero"><path d="M10.701,15.7 C8.89728199,15.7255052 7.21955561,14.7778422 6.31025352,13.2198888 C5.40095143,11.6619354 5.40095143,9.73506461 6.31025352,8.17711119 C7.21955561,6.61915776 8.89728199,5.67149476 10.701,5.697 C13.4635283,5.69700006 15.7029999,7.93647172 15.7029999,10.699 C15.7029999,13.4615283 13.4635283,15.7009999 10.701,15.701 M19.069,12.584 C18.2641708,12.307118 17.7236334,11.5501247 17.723,10.699 C17.723,9.823 18.286,9.086 19.068,8.814 C19.3074525,8.73508634 19.4450419,8.48436788 19.383,8.24 C19.18589,7.54432629 18.9051758,6.8751117 18.547,6.247 C18.4248265,6.04116727 18.1690253,5.95775386 17.949,6.052 C17.5390365,6.21777935 17.0863052,6.24585571 16.659,6.132 C15.976338,5.94956573 15.4418206,5.41847468 15.255,4.737 C15.1383061,4.30793752 15.1649935,3.85249716 15.331,3.44 C15.4240151,3.21998068 15.3403263,2.9650714 15.135,2.843 C14.511958,2.48989982 13.8489144,2.21259653 13.16,2.017 C12.9158521,1.95433737 12.6649137,2.09161033 12.586,2.331 C12.309118,3.13582917 11.5521247,3.67636656 10.701,3.677 C9.85040748,3.6763912 9.09384767,3.13627817 8.817,2.332 C8.73725857,2.09274029 8.48655972,1.95540093 8.242,2.017 C7.534,2.217 6.863,2.502 6.238,2.859 C6.03668508,2.97695794 5.95238584,3.2247466 6.04,3.441 C6.34515402,4.18476735 6.17580169,5.03893107 5.60995761,5.6100084 C5.04411352,6.18108572 4.19154502,6.35829412 3.445,6.06 C3.22552711,5.9681535 2.97191728,6.05169556 2.85,6.256 C2.49277987,6.88456494 2.21307301,7.55411533 2.017,8.25 C1.95544064,8.49173281 2.08930049,8.74032966 2.325,8.822 C3.11798525,9.10568906 3.64740279,9.85679768 3.648,10.699 C3.648,11.566 3.096,12.298 2.324,12.576 C2.08891979,12.6572223 1.95511308,12.9048516 2.016,13.146 C2.19205202,13.7668881 2.43444923,14.3670139 2.739,14.936 C2.86308868,15.1553581 3.13641108,15.2403334 3.363,15.13 C3.958,14.857 4.706,14.866 5.467,15.368 C5.584,15.445 5.692,15.553 5.769,15.668 C6.296,16.468 6.281,17.248 5.967,17.856 C5.84748561,18.0767484 5.92122963,18.3524106 6.135,18.484 C6.79694841,18.8722633 7.50610432,19.1737386 8.245,19.381 C8.48789757,19.4439915 8.73780263,19.3067629 8.815,19.068 C9.08960526,18.2600595 9.84766869,17.7162314 10.701,17.715 C11.579,17.715 12.319,18.282 12.588,19.068 C12.6656096,19.3064219 12.915169,19.4434606 13.158,19.381 C13.8871843,19.1759004 14.5874314,18.8792026 15.242,18.498 C15.4571258,18.3659271 15.5306293,18.0881983 15.409,17.867 C15.091,17.259 15.072,16.474 15.6,15.672 C15.677,15.556 15.785,15.447 15.902,15.37 C16.674,14.859 17.429,14.857 18.027,15.14 C18.2535684,15.2535516 18.5293789,15.1701057 18.655,14.95 C18.9619353,14.3804856 19.2060364,13.7792859 19.383,13.157 C19.4455876,12.9131099 19.3082477,12.6624865 19.069,12.584" id="settings"></path></g></g></svg>