<?xml version="1.0" encoding="UTF-8"?>
<svg width="26px" height="26px" viewBox="0 0 26 26" version="1.1" xmlns="http://www.w3.org/2000/svg" xmlns:xlink="http://www.w3.org/1999/xlink">
    <title>icon-snapchat</title>
    <defs>
        <path d="M6,0 L20,0 C23.3137085,0 26,2.6862915 26,6 L26,20 C26,23.3137085 23.3137085,26 20,26 L6,26 C2.6862915,26 0,23.3137085 0,20 L0,6 C0,2.6862915 2.6862915,0 6,0 Z" id="path-1"></path>
    </defs>
    <g id="icon-snapchat" stroke="none" stroke-width="1" fill="none" fill-rule="evenodd">
        <g id="snapchat-icon">
            <mask id="mask-2" fill="white">
                <use xlink:href="#path-1"></use>
            </mask>
            <use id="Mask" fill="#FFFC00" fill-rule="nonzero" xlink:href="#path-1"></use>
        </g>
        <g id="snapchat-seeklogo.com" transform="translate(0.000000, 0.007938)">
            <path d="M13.1179334,21.9457209 C13.0639343,21.9457209 13.0124127,21.943749 12.973228,21.9418783 C12.942133,21.944558 12.9100268,21.9457209 12.8778701,21.9457209 C11.7434344,21.9457209 10.9849192,21.4094211 10.315543,20.9358673 C9.83577031,20.5969574 9.3833005,20.2770078 8.85321966,20.1888295 C8.59288141,20.1456505 8.3339083,20.1237576 8.08368224,20.1237576 C7.63283038,20.1237576 7.27652748,20.1936834 7.01639147,20.2445477 C6.85631555,20.2757438 6.7182842,20.3025916 6.61160062,20.3025916 C6.49986096,20.3025916 6.36410485,20.2778168 6.30752716,20.0846234 C6.26267961,19.9322328 6.23052286,19.7845949 6.19947844,19.6424175 C6.12181685,19.2871258 6.06549197,19.07027 5.93246615,19.0496917 C4.50963089,18.8301561 3.66895422,18.5067684 3.50149641,18.1151234 C3.48395176,18.0739668 3.47414294,18.0325574 3.47196882,17.991603 C3.46544646,17.8748578 3.54786079,17.7724719 3.66293747,17.7534104 C4.79287324,17.5673462 5.79756957,16.9701204 6.64926852,15.977761 C7.30903816,15.2094876 7.63303263,14.4754439 7.66781855,14.3943947 C7.66933538,14.3907543 7.67110501,14.3869117 7.6729252,14.383423 C7.83709656,14.0503276 7.86975892,13.7624842 7.77030556,13.5281342 C7.58697161,13.0957877 6.97978535,12.9031505 6.57807872,12.7756864 C6.47817032,12.7440858 6.38367193,12.7141538 6.3083867,12.6842722 C5.95228603,12.5436117 5.36663873,12.2464145 5.44465425,11.8362137 C5.50148474,11.5370952 5.89712406,11.3287841 6.21687141,11.3287841 C6.30565641,11.3287841 6.38432922,11.3443569 6.45056405,11.3754519 C6.81187249,11.5447299 7.13692873,11.6305318 7.41648014,11.6305318 C7.76413713,11.6305318 7.93204999,11.4981633 7.97265042,11.4605459 C7.96263936,11.2750884 7.95040361,11.0790131 7.93857235,10.8935556 C7.93857235,10.8933534 7.93831955,10.8911287 7.93831955,10.8911287 C7.8567142,9.5929767 7.75493504,7.97745371 8.16816956,7.05102571 C9.40499114,4.27791012 12.0279408,4.06226774 12.8021298,4.06226774 C12.8227586,4.06226774 13.1395735,4.05913296 13.1395735,4.05913296 C13.1538822,4.05888015 13.1694044,4.05867791 13.1854828,4.05867791 C13.9617954,4.05867791 16.5902056,4.2745731 17.8277856,7.0493572 C18.2410201,7.97639193 18.1391398,9.59328006 18.0572816,10.8927972 L18.053439,10.9549872 C18.0422145,11.1314448 18.0318495,11.2984476 18.0231025,11.4603437 C18.0613265,11.4955341 18.2149812,11.6168804 18.5275995,11.6291667 C18.7941062,11.6189533 19.1003537,11.5335559 19.4375952,11.3756541 C19.5418518,11.3267111 19.6572824,11.3165484 19.7356519,11.3165484 C19.8541161,11.3165484 19.9746534,11.3396042 20.075118,11.3815192 L20.0804775,11.3835922 C20.3666523,11.4851691 20.5540817,11.6881713 20.5581266,11.9014373 C20.5617164,12.1002429 20.4139774,12.3973895 19.6873156,12.6843734 C19.6128899,12.7138504 19.5179365,12.7439847 19.4176236,12.7757875 C19.015563,12.9034033 18.4088824,13.0959394 18.2255484,13.5280331 C18.1259434,13.7623831 18.1587069,14.0501253 18.3229288,14.3831196 C18.324749,14.38676 18.3263164,14.390451 18.328086,14.3942936 C18.378647,14.5128084 19.6024744,17.303317 22.3329671,17.7531576 C22.4479932,17.7723202 22.5305592,17.8748072 22.5239863,17.9913502 C22.5215594,18.0332146 22.5114472,18.0750791 22.4937509,18.1159829 C22.3274559,18.5054538 21.4868298,18.8283865 20.0635901,19.0482254 C19.9300081,19.0688543 19.8737338,19.2847495 19.79678,19.6381704 C19.7649267,19.7841398 19.7325171,19.9272273 19.6882763,20.0775955 C19.6468669,20.2190144 19.5547449,20.2881312 19.4068036,20.2881312 L19.3845062,20.2881312 C19.2881876,20.2881312 19.1517236,20.2706371 18.9796142,20.2369635 C18.6787767,20.178414 18.3413835,20.1239093 17.9123234,20.1239093 C17.6621479,20.1239093 17.4032254,20.1458527 17.1425838,20.1889812 C16.6130591,20.2771595 16.1606399,20.5966035 15.6817267,20.9351595 C15.0110359,21.4093705 14.2522679,21.9457209 13.1179334,21.9457209" id="Path" fill="#FFFFFF" fill-rule="nonzero"></path>
            <path d="M13.1854322,4.28716277 C13.9162905,4.28716277 16.4330116,4.48349088 17.6190195,7.14243988 C18.0095521,8.01800358 17.9094415,9.60404954 17.8291507,10.8781345 C17.8166116,11.0803277 17.8041736,11.2763019 17.7940614,11.4634279 L17.7898143,11.5438704 L17.84351,11.6037851 C17.8652007,11.6278521 18.0682028,11.8400058 18.519712,11.8574493 L18.5269927,11.8578538 L18.5345769,11.8577021 C18.8330886,11.8463259 19.1693188,11.7535971 19.5344699,11.5825495 C19.5882668,11.5573701 19.659861,11.5450838 19.7356013,11.5450838 C19.8219088,11.5450838 19.9136264,11.5613139 19.9892655,11.5931673 L20.0006923,11.5977178 C20.1921666,11.6648121 20.3275182,11.7913156 20.3295912,11.9057855 C20.3307035,11.9705035 20.2823167,12.20364 19.6035867,12.4717646 C19.5372508,12.4979552 19.449932,12.5258143 19.348709,12.5577182 C18.9070087,12.6979743 18.2397055,12.9096223 18.0151138,13.4388436 C17.8886609,13.7369509 17.9232952,14.0887539 18.1179548,14.4843426 C18.1980433,14.6712664 19.4588308,17.511173 22.2958554,17.9786594 C22.2952992,17.9921086 22.2918611,18.0068218 22.2842769,18.0241642 C22.2361935,18.1374207 21.9305526,18.5287118 20.0286525,18.8221675 C19.7310508,18.8677734 19.658142,19.2013745 19.5736041,19.5891768 C19.5430653,19.7280172 19.5120209,19.8681721 19.4693474,20.012928 C19.4563027,20.0566633 19.4538758,20.0591407 19.4070058,20.0591407 C19.400534,20.0591407 19.3929499,20.0591407 19.3846579,20.0591407 C19.3003222,20.0591407 19.1723019,20.0416467 19.0239056,20.0125236 C18.7536574,19.9598896 18.3844615,19.8953233 17.9124751,19.8953233 C17.6490527,19.8953233 17.3776921,19.9182274 17.1054215,19.9636817 C16.5234146,20.0604553 16.0501137,20.3952193 15.5488526,20.7495503 C14.8756843,21.2252276 14.1799153,21.7174383 13.1183379,21.7174383 C13.0719735,21.7174383 13.0267215,21.7158709 12.9813683,21.7135956 L12.9694359,21.71309 L12.957453,21.7140001 C12.9314141,21.7162754 12.905173,21.7174383 12.8783757,21.7174383 C11.81695,21.7174383 11.1208776,21.2253793 10.4480127,20.7495503 C9.94665044,20.3952193 9.47309672,20.0604553 8.89119092,19.9636817 C8.6191731,19.9183791 8.34755975,19.8953233 8.08428897,19.8953233 C7.61240376,19.8953233 7.24275277,19.9675243 6.97306075,20.0202594 C6.8246644,20.0492814 6.69618907,20.0741573 6.61210623,20.0741573 C6.54324224,20.0741573 6.54192766,20.0701125 6.52736611,20.0203605 C6.48469268,19.8755034 6.45349658,19.7320115 6.42310946,19.5933734 C6.33836933,19.2051665 6.2654099,18.8697453 5.96795992,18.8240888 C4.06621149,18.5303803 3.76052008,18.1384319 3.71228495,18.0254788 C3.70475137,18.0076814 3.70136378,17.9925131 3.70060537,17.9790639 C6.53757941,17.511982 7.79811408,14.6719743 7.8784554,14.4843426 C8.07346893,14.0890573 8.10805261,13.7373048 7.98119522,13.4388436 C7.75660355,12.9099257 7.08940146,12.6979743 6.6480045,12.557971 C6.5465287,12.5258648 6.45915941,12.4979552 6.3927729,12.4717646 C5.81961414,12.2453022 5.64330816,12.0171713 5.66949873,11.8789377 C5.69988585,11.719519 5.97625192,11.5574207 6.21742758,11.5574207 C6.2716289,11.5574207 6.31915618,11.5661677 6.35429603,11.5826 C6.74599159,11.7661868 7.10355852,11.8592695 7.417188,11.8592695 C7.91020767,11.8592695 8.12964213,11.6298745 8.15320352,11.6036839 L8.20664643,11.5439209 L8.20234875,11.463883 C8.19238825,11.2768581 8.18010194,11.0809344 8.16715834,10.8791458 C8.08712038,9.6047574 7.98700973,8.01977321 8.37739071,7.14415895 C9.55899975,4.49496821 12.0634345,4.2907526 12.8027365,4.2907526 C12.8209384,4.2907526 13.1423543,4.28746614 13.1423543,4.28746614 C13.1555002,4.28736502 13.1701123,4.28716277 13.1854322,4.28716277 M13.1854322,3.83019305 L13.1845727,3.83019305 C13.1677359,3.83019305 13.1519103,3.83019305 13.1368432,3.83039529 C13.0167104,3.83160875 12.8192194,3.83353007 12.8014725,3.83373231 C12.3683675,3.83373231 11.5018037,3.89491104 10.5709769,4.3057692 C10.0387725,4.54052362 9.56006153,4.85794516 9.14819215,5.24923624 C8.65714436,5.71545862 8.25710624,6.29028588 7.95940346,6.95799359 C7.52341652,7.93563982 7.62691475,9.5823589 7.71003693,10.9056902 L7.71034029,10.9077632 C7.71923902,11.0494855 7.72859279,11.1974774 7.73713759,11.3416772 C7.67317801,11.3710531 7.56947753,11.4020469 7.41663182,11.4020469 C7.17070344,11.4020469 6.87825899,11.3234247 6.54764104,11.168506 C6.4503618,11.1232034 6.33932999,11.1002993 6.21682085,11.1002993 C6.01998713,11.1002993 5.81248505,11.1582421 5.63248812,11.2640661 C5.4060257,11.3970414 5.25970235,11.5849764 5.21996146,11.793338 C5.19377089,11.9311671 5.19503492,12.2035894 5.49764211,12.4798544 C5.66408871,12.6319417 5.90860139,12.7721977 6.22420274,12.8969315 C6.30702155,12.9295433 6.40531201,12.9606889 6.50941697,12.9937052 C6.87067485,13.108529 7.4174408,13.2820036 7.56002264,13.6175765 C7.63227421,13.7877141 7.60117924,14.0115979 7.46785005,14.2822 C7.46436135,14.2895819 7.46087264,14.2968121 7.4576873,14.3043963 C7.42436765,14.3822096 7.11351902,15.0863211 6.47589507,15.8289096 C6.11357542,16.2511945 5.71449796,16.6041098 5.29039284,16.8781501 C4.77274999,17.2127118 4.21263596,17.4314384 3.62577519,17.5281109 C3.39531845,17.5659305 3.2307426,17.7712584 3.24358508,18.0045972 C3.24752883,18.0718432 3.26330385,18.138887 3.29065731,18.2037567 C3.29085956,18.2041612 3.29111236,18.2045657 3.2913146,18.2049196 C3.38449841,18.4228878 3.60054528,18.6080419 3.95179209,18.7713537 C4.38100387,18.9707155 5.02292549,19.1384261 5.85955728,19.2696317 C5.90182622,19.3500236 5.94571311,19.5520651 5.97610024,19.6903998 C6.00790306,19.837431 6.04107104,19.9886082 6.08834551,20.1491898 C6.13936149,20.3231699 6.27167946,20.5310765 6.61160062,20.5310765 C6.74042988,20.5310765 6.88857342,20.5020545 7.06012667,20.4687854 C7.31136396,20.4194885 7.65492551,20.3522425 8.0837328,20.3522425 C8.32147031,20.3522425 8.56785375,20.3731747 8.81585513,20.4143819 C9.29390877,20.4939648 9.70603095,20.7850946 10.1828711,21.1222349 C10.8808143,21.6156085 11.6708289,22.1740541 12.8778701,22.1740541 C12.9107852,22.1740541 12.9438015,22.1729923 12.9764133,22.1707171 C13.0163059,22.1725878 13.0657545,22.1740541 13.1179334,22.1740541 C14.3253285,22.1740541 15.1151409,21.6154063 15.8123256,21.1224372 L15.8134379,21.121426 C16.2903792,20.7846901 16.7020464,20.4939648 17.1799483,20.4143819 C17.4278486,20.3732253 17.6741814,20.3522425 17.9120201,20.3522425 C18.3216648,20.3522425 18.6460132,20.4044719 18.9356262,20.4609485 C19.124623,20.4981613 19.2715025,20.5160599 19.3842028,20.5160599 L19.3952251,20.5162621 L19.4066519,20.5162621 C19.65526,20.5162621 19.8379366,20.3797982 19.9076602,20.1409989 C19.953974,19.9838049 19.9870408,19.836167 20.0196526,19.6866583 C20.0480679,19.5570201 20.0934716,19.3492147 20.1357406,19.2679632 C20.9729285,19.1365048 21.6145973,18.9691481 22.0438597,18.7698369 C22.3942975,18.6072835 22.6100916,18.4223316 22.7038315,18.2052735 C22.7319434,18.1402016 22.7483757,18.0727533 22.7520667,18.0040915 C22.7652631,17.7711573 22.6004344,17.5654249 22.369826,17.5276053 C19.7616402,17.0977362 18.5866546,14.4178044 18.5380656,14.3039412 C18.5349308,14.2964582 18.5313915,14.2890257 18.5277006,14.2817955 C18.3943714,14.0110923 18.3635798,13.7874613 18.4358819,13.6170204 C18.5781604,13.2817508 19.1245724,13.1082762 19.4860831,12.9935029 C19.5907442,12.9605372 19.6893886,12.9291894 19.7715501,12.8967293 C20.1274486,12.7561699 20.3818206,12.6036781 20.5496324,12.4305069 C20.7500559,12.2240666 20.789089,12.0262722 20.786662,11.8968362 C20.7805442,11.5836618 20.5411381,11.3053744 20.1603132,11.1691127 C20.0316861,11.1159226 19.8850089,11.0878613 19.7356519,11.0878613 C19.6339738,11.0878613 19.4834034,11.1018161 19.3408721,11.1683543 C19.0357369,11.3111384 18.7624044,11.3892045 18.5277511,11.4003279 C18.4029668,11.3940078 18.3154458,11.3669577 18.258767,11.341121 C18.2658961,11.2189658 18.2737836,11.0934736 18.2819239,10.9626219 L18.2853115,10.9066003 C18.3688887,9.58240946 18.4727408,7.93442636 18.0365517,6.95607227 C17.7375849,6.2859882 17.336131,5.70969467 16.8431114,5.24246107 C16.429624,4.85091719 15.9492952,4.53354621 15.4151694,4.29894347 C14.4856572,3.89111897 13.6191439,3.83019305 13.1854322,3.83019305" id="Shape" fill="#020202" fill-rule="nonzero"></path>
            <rect id="Rectangle" x="0" y="0" width="26" height="25.9999494"></rect>
        </g>
    </g>
</svg>