<?xml version="1.0" encoding="UTF-8"?>
<svg width="26px" height="26px" viewBox="0 0 26 26" version="1.1" xmlns="http://www.w3.org/2000/svg" xmlns:xlink="http://www.w3.org/1999/xlink">
    <title>icon-tiktok</title>
    <defs>
        <path d="M6,0 L20,0 C23.3137085,0 26,2.6862915 26,6 L26,20 C26,23.3137085 23.3137085,26 20,26 L6,26 C2.6862915,26 0,23.3137085 0,20 L0,6 C0,2.6862915 2.6862915,0 6,0 Z" id="path-1"></path>
    </defs>
    <g id="icon-tiktok" stroke="none" stroke-width="1" fill="none" fill-rule="evenodd">
        <g id="tiktok-icon-black-1-logo-svgrepo-com">
            <mask id="mask-2" fill="white">
                <use xlink:href="#path-1"></use>
            </mask>
            <use id="Mask" fill="#000000" fill-rule="nonzero" xlink:href="#path-1"></use>
            <g id="Group-2" mask="url(#mask-2)">
                <g transform="translate(5.136331, 4.113610)">
                    <path d="M0.608067418,15.2117221 L0.717476719,15.375289 C0.703800557,15.35751 0.662772069,15.3006172 0.608067418,15.2117221 Z M2.9157831,11.4816856 C3.01890136,10.5962908 3.36736999,10.1020343 4.0216376,9.59355454 C4.96036941,8.9072847 6.13022836,9.29486715 6.13022836,9.29486715 L6.13022836,6.98715148 C6.41469254,6.98003987 6.69915672,6.99781888 6.9800651,7.04048851 L6.9800651,10.0095834 C6.9800651,10.0095834 5.81020615,9.62200096 4.87147435,10.3082708 C4.21720673,10.8167505 3.86873811,11.311007 3.76561984,12.1964018 C3.76206404,12.6764351 3.84740329,13.3058121 4.24565315,13.8462941 C4.14609068,13.792957 4.04652822,13.7325084 3.94340995,13.6649482 C3.0722384,13.0533502 2.91222729,12.1323974 2.9157831,11.4816856 Z M11.819512,2.72018874 C11.1759118,1.98413767 10.9305614,1.23741919 10.8416664,0.714716258 L11.6523893,0.714716258 C11.6523893,0.714716258 11.4923782,2.08725594 12.6693487,3.434905 L12.6871278,3.45268401 C12.3671055,3.24644748 12.0755298,2.99754132 11.819512,2.72018874 Z M15.7273387,4.81100048 L15.7273387,7.71964674 C15.7273387,7.71964674 14.6926002,7.67697712 13.9245469,7.47429639 C12.8542505,7.1898322 12.1679806,6.75246852 12.1679806,6.75246852 C12.1679806,6.75246852 11.6915031,6.43955792 11.6559451,6.41822311 L11.6559451,12.427529 C11.6559451,12.7617744 11.56705,13.5973879 11.3003649,14.2943252 C10.9518962,15.2046105 10.4114143,15.8055411 10.3118518,15.9264384 C10.3118518,15.9264384 9.65402841,16.7371613 8.49839267,17.2811991 C7.4565426,17.7718998 6.53914562,17.7612324 6.26534884,17.7718998 C6.26534884,17.7718998 4.68301683,17.8359042 3.25714012,16.8722818 C2.94778532,16.6589337 2.65976533,16.4171391 2.39663596,16.1504539 L2.40374757,16.1575655 C3.82962428,17.1247438 5.4119563,17.0571835 5.4119563,17.0571835 C5.68575307,17.0465161 6.60315006,17.0571835 7.64500013,16.5664828 C8.80063587,16.0224451 9.45845929,15.2117221 9.45845929,15.2117221 C9.55802175,15.0908249 10.0985037,14.4898943 10.4469723,13.5796089 C10.7136575,12.8826717 10.8025525,12.0470581 10.8025525,11.7128127 L10.8025525,5.70706266 C10.8416664,5.72839747 11.3145881,6.04130807 11.3145881,6.04130807 C11.3145881,6.04130807 12.0008579,6.47867175 13.0711544,6.76313593 C13.8392077,6.96581666 14.8739462,7.00848629 14.8739462,7.00848629 L14.8739462,4.72921703 C15.2295264,4.81100048 15.5317696,4.83233529 15.7273387,4.81100048 L15.7273387,4.81100048 Z" id="Shape" fill="#EE1D52" fill-rule="nonzero"></path>
                    <path d="M14.8739462,4.72566123 L14.8739462,7.00493049 C14.8739462,7.00493049 13.8392077,6.96226086 13.0711544,6.75958013 C12.0008579,6.47511595 11.3145881,6.03775227 11.3145881,6.03775227 C11.3145881,6.03775227 10.8381106,5.72484167 10.8025525,5.70350685 L10.8025525,11.7128127 C10.8025525,12.0470581 10.7136575,12.8826717 10.4469723,13.5796089 C10.0985037,14.4898943 9.55802175,15.0908249 9.45845929,15.2117221 C9.45845929,15.2117221 8.80063587,16.0224451 7.64500013,16.5664828 C6.60315006,17.0571835 5.68575307,17.0465161 5.4119563,17.0571835 C5.4119563,17.0571835 3.82962428,17.121188 2.40374757,16.1575655 L2.39663596,16.1504539 C2.24729227,15.9975544 2.10506018,15.8375433 1.97349549,15.6704206 C1.5183528,15.0908249 1.24100022,14.4081108 1.16988418,14.2125417 L1.16988418,14.2089859 C1.05609851,13.8711847 0.821415555,13.0533502 0.853417776,12.2675179 C0.910310612,10.8771992 1.37967651,10.0202508 1.50412959,9.80690268 C1.8312634,9.22375111 2.26151548,8.70104817 2.7664394,8.26368449 C3.21447049,7.88676945 3.72295021,7.58452626 4.26698796,7.37473392 C4.85725114,7.12582776 5.49018395,6.99426308 6.13022836,6.98359567 L6.13022836,9.29131135 C6.13022836,9.29131135 4.96036941,8.9037289 4.0216376,9.58999874 C3.36736999,10.0984785 3.01890136,10.592735 2.9157831,11.4781298 C2.91222729,12.1288416 3.0722384,13.0497944 3.94696576,13.6649482 C4.05008402,13.7325084 4.14964649,13.792957 4.24920895,13.8462941 C4.40210845,14.0525306 4.58701017,14.2338765 4.8003583,14.3832202 C5.65730665,14.9485928 6.37202291,14.9877066 7.2894199,14.621459 C7.90101789,14.3761086 8.35971638,13.8249593 8.57306452,13.2098055 C8.70818501,12.8257788 8.7046292,12.4417522 8.7046292,12.0435023 L8.7046292,0.714716258 L10.8381106,0.714716258 C10.9270056,1.23741919 11.1688002,1.98413767 11.8159562,2.72018874 C12.0755298,2.99754132 12.3671055,3.24644748 12.683572,3.45268401 C12.7760228,3.55580228 13.2560561,4.0536146 13.8747657,4.36296939 C14.1912321,4.5229805 14.5290333,4.64387777 14.8739462,4.72566123 Z" id="Path" fill="#FFFFFF" fill-rule="nonzero"></path>
                    <g id="Group" stroke-width="1" fill="none" fill-rule="evenodd">
                        <path d="M0.320047434,13.5084929 L0.429456735,13.6613923 C0.414868828,13.6436133 0.371105108,13.5902763 0.320047434,13.5084929 Z" id="Path" fill="#69C9D0" fill-rule="nonzero"></path>
                        <path d="M4.26698796,7.37828973 C3.71939441,7.58808206 3.21447049,7.89032525 2.7664394,8.26724029 C2.25795968,8.70460398 1.8312634,9.23086271 1.50412959,9.81401429 C1.37967651,10.0273624 0.910310612,10.880755 0.853417776,12.2746295 C0.821415555,13.0640176 1.05965431,13.8782963 1.16988418,14.2160975 L1.16988418,14.2196533 C1.24100022,14.4116666 1.5183528,15.0979365 1.97349549,15.6775322 C2.10506018,15.8446549 2.24729227,16.0046661 2.39663596,16.1575655 C1.91304685,15.8233201 1.48635058,15.4215145 1.12010295,14.962816 C0.668516057,14.3903318 0.391163479,13.7111736 0.320047434,13.5120487 L0.320047434,13.504937 C0.206261761,13.1671358 -0.0319769915,12.3493013 0.00358103123,11.5599132 C0.0604738677,10.1695945 0.529839768,9.31264616 0.654292848,9.09929803 C0.981426658,8.51614645 1.40812293,7.98988772 1.91660266,7.55252404 C2.36463374,7.175609 2.87311347,6.8733658 3.41715122,6.66357347 C3.75850824,6.52134138 4.11408846,6.41822311 4.4767803,6.35066287 C5.02437385,6.25465621 5.5826348,6.2475446 6.13378416,6.32577225 L6.13378416,6.98715148 C5.49018395,6.99781888 4.85725114,7.12938357 4.26698796,7.37828973 L4.26698796,7.37828973 Z" id="Path" fill="#69C9D0" fill-rule="nonzero"></path>
                        <path d="M10.8416664,0.714716258 L8.70818501,0.714716258 L8.70818501,12.0435023 C8.70818501,12.4417522 8.70818501,12.8257788 8.57662032,13.2098055 C8.35971638,13.8214035 7.90101789,14.3761086 7.2929757,14.621459 C6.37557871,14.9912624 5.65730665,14.9485928 4.80391411,14.3832202 C4.59056597,14.2374323 4.40566425,14.0560864 4.25276475,13.8498499 C4.98170422,14.2374323 5.63241604,14.2303207 6.43958315,13.9067427 C7.05118115,13.6613923 7.50987964,13.1066872 7.72322778,12.4950892 C7.85834826,12.1110626 7.85479246,11.7270359 7.85479246,11.3287861 L7.85479246,0 L10.8025525,0 C10.7989967,0 10.7669945,0.28090838 10.8416664,0.714716258 L10.8416664,0.714716258 Z M14.8739462,4.09628422 L14.8739462,4.72566123 C14.5290333,4.64387777 14.1912321,4.5229805 13.8747657,4.36296939 C13.2596119,4.0571704 12.7795786,3.55580228 12.683572,3.45268401 C12.7938018,3.52380006 12.9040317,3.5878045 13.0213732,3.64825314 C13.7752033,4.02161238 14.5112543,4.13539805 14.8739462,4.09628422 Z" id="Shape" fill="#69C9D0" fill-rule="nonzero"></path>
                    </g>
                </g>
            </g>
        </g>
    </g>
</svg>