<svg xmlns="http://www.w3.org/2000/svg" width="14" height="14"><path d="M2.20121419 12.6045722c-.44368458 0-.80336199-.3596774-.80336199-.803362V2.19827601c0-.13679668.03412173-.26562381.09431837-.37843455.13497492-.25417568.40187738-.42656545.70904362-.42656545h3.71489587c.44368458 0 .80336199.35967742.80336199.803362C6.71947205 2.64032258 6.35979464 3 5.91611006 3L3.0078522 2.99927601V10.997276h7.991l.0002962-2.64367805c0-.44368458.3596774-.803362.803362-.803362h.003276c.4436846 0 .803362.35967742.803362.803362v3.44761225c0 .409555-.3064707.7475299-.70259.7971027l-.100772.0062593H2.20121419ZM11.8057864 1.39327601c.4436846 0 .803362.35967742.803362.803362v2.33043386c0 .44368458-.3596774.80336199-.803362.80336199h-.003276c-.4436846 0-.803362-.35967741-.803362-.80336199l-.0002962-.38579586-3.28355842 3.28429651c-.31373237.31373237-.82239305.31373237-1.13612542 0l-.00231649-.00231649c-.31373238-.31373238-.31373238-.82239305 0-1.13612543L9.8638522 2.99927601 9.47535252 3c-.44368458 0-.803362-.35967742-.803362-.80336199 0-.44368458.35967742-.803362.803362-.803362h2.33043388Z" fill="#9CA3AF" fill-rule="evenodd"/></svg>