<?xml version="1.0" encoding="UTF-8"?>
<svg width="26px" height="26px" viewBox="0 0 26 26" version="1.1" xmlns="http://www.w3.org/2000/svg" xmlns:xlink="http://www.w3.org/1999/xlink">
    <title>icon-youtube</title>
    <g id="icon-youtube" stroke="none" stroke-width="1" fill="none" fill-rule="evenodd">
        <polygon id="Path" fill="#FFFFFF" fill-rule="nonzero" points="16.7899484 12.8942351 10 9 10 16.7884703"></polygon>
        <g id="YouTube_full-color_icon_(2017)" transform="translate(0.000000, 3.914743)" fill-rule="nonzero">
            <path d="M25.4230701,2.84136267 C25.1201852,1.72135402 24.2464786,0.844319012 23.1264699,0.544762463 C21.6220304,-0.0360444016 7.05026844,-0.320623123 2.8231927,0.561404494 C1.70318404,0.864289449 0.826149035,1.73799605 0.526592486,2.8580047 C-0.152402359,5.83692816 -0.203992653,12.277394 0.543234516,15.3228856 C0.846119472,16.4428942 1.71982607,17.3199292 2.83983473,17.6194858 C5.81875819,18.3051374 19.9811261,18.4016612 23.1431119,17.6194858 C24.2631206,17.3166008 25.1401556,16.4428942 25.4397122,15.3228856 C26.1636405,12.0776896 26.2152308,6.03663253 25.4230701,2.84136267 Z" id="Path" fill="#FF0000"></path>
            <polygon id="Path" fill="#FFFFFF" points="17.2684752 9.08212411 10.4785267 5.18788897 10.4785267 12.9763593"></polygon>
        </g>
    </g>
</svg>